<svg id="Layer_1" data-name="Layer 1" xmlns="http://www.w3.org/2000/svg" viewBox="0 0 411.5 407.92"><defs><style>.cls-1{fill:none;}</style></defs><title>nai</title><path d="M649.3,561V548.16h11.17V527.77l-11-.57V514.39h11V494.08H649.39V480.82h11.17V460.44H649.4v-13.3h11.16V427H649.5v-13l11-.52v-20h-11V380.22h11V360l-11-.55V346.5h11.07V326.16H649.39V313h11.15v-20.3l-11.14-.5v-13h11.16V259.06H649.49V246.49c2.82-2.31,7.58,1,10.51-1.58V225H632.78c-1.64-7-.41-11.85,5.39-16.38C651.81,198,664.84,186.54,678,175.31c1.48-1.27,2.41-3.19,3.6-4.8l-1-1.35h-31.2V153.08H479.1v16.26c-9.34,0-18-.07-26.64.07-1.62,0-3.23.86-4.84,1.33.93,1.44,1.59,3.2,2.85,4.27,13.45,11.44,26.68,23.18,40.65,34,5.93,4.58,6,9.55,5,16.27H468c0,.91,0,1.76,0,2.57,0,1.38-.07,2.64,0,3.85,0,.39,0,.78.1,1.17a7.75,7.75,0,0,1-.1,2.67v8.33c2.66,4.58,8.14.14,11.58,2.89v12H468.37v20.34h11.1v13.34H468.28v20.4h11.24v13H468.31V346.4h11.24v12.93l-11.14.58v19.85h11V393h-11v20.37l11,.56v12.8h-11V447H479.5v12.88l-11,.58v20.3h11.08v12.88h-11.1V514l11,.49v12.9H468.22v20.38h11.25v13.2M630.09,156.53h15.53v12.55H630.09ZM643.46,173c-12.2,12.9-23.46,24.85-34.82,36.71a5.57,5.57,0,0,1-3.53,1.27c-4.8.14-9.62.06-15.25.06,2.28-5.09,4.31-9.7,6.41-14.28,3.18-6.93,6.31-13.9,9.71-20.72.66-1.32,2.47-2.88,3.77-2.91C620.52,172.93,631.29,173,643.46,173ZM538.14,210.24c0,.12-.07.32-.19.82-4.89,0-9.88.1-14.85-.07a5.41,5.41,0,0,1-3.4-1.59q-16.35-17.2-32.53-34.58a8.88,8.88,0,0,1-.82-1.78c11.32,0,22.25,0,33.18.08a3.52,3.52,0,0,1,2.56,1.73C527.52,186.61,532.82,198.43,538.14,210.24ZM525.55,173.3h36.67V211c-6,0-11.91.06-17.84-.08a3.12,3.12,0,0,1-2.2-1.6C536.65,197.52,531.22,185.64,525.55,173.3Zm102.8,41.86v9.63H500.42v-9.63Zm-62-4.09V173.28h36.69c-4.31,9.38-9.21,18.29-12.52,27.76-2.89,8.27-7.39,11.71-16,10.1C572,210.67,569.31,211.07,566.38,211.07Zm25.38-54.56h34v12.62h-34Zm-50.35,0h46.14V169H541.41Zm-40.92,0H537V169H500.49Zm-17.25.11h13V169h-13Zm-29.48,16.5c9.44,0,17.6,0,25.77,0a2.73,2.73,0,0,1,1.69.87c11.36,12,22.7,24.1,34.9,37.09-5.92,0-10.4.08-14.87-.06a6.3,6.3,0,0,1-3.64-1.12C483.32,198,469.12,186,453.76,173.08Zm42.58,387.66H483.65V548.13h12.69Zm20.39.09H500.5V548.22h16.23Zm20.55-.11h-16.2V548.35h16.2Zm25.1.08h-21.1V548.27h21.1Zm25.31-.19H566.55V548.29h21.14Zm20.18.14H591.66V548.24h16.21Zm20.48,0H612.16V548.21h16.19Zm16.86-.12H632.56V548.24h12.65Zm11.61-29.32v12.53H472.17V531.35ZM483.74,527V514.62h12.72V527Zm16.78.16V514.47h16.17v12.66ZM521,527V514.27c4.68,0,9.27-.15,13.83.13.92.05,2.38,1.67,2.49,2.68.32,3.11.11,6.27.11,9.9Zm20.32.12V514.68h21.07V527.1Zm35.73-12.85h10.5v12.81H566.91c-.25-.4-.56-.67-.58-1C565.37,514.24,565.38,514.24,577.08,514.25Zm14.29.31h16.49v12.81c-4.85,0-9.59.1-14.32-.1a3,3,0,0,1-2.07-2.1C591.24,521.74,591.37,518.29,591.37,514.56ZM612.13,527V514.56h16.2V527Zm20.55-12.44h12.43v12.21a6,6,0,0,1-1.25.51C631.86,528.43,630.74,527.19,632.68,514.58Zm24-16.65v12.49H472V497.93Zm-173.14-4.34V481.21h12.71v12.38Zm17,.07V481.15H516.7v12.51Zm20.63-.1V481.13h16v12.43Zm20.27,0V481.13h21v12.43Zm25.15,0V481.17h21.11v12.35Zm25,.08V481.2h16.16v12.4Zm20.65.16v-12.6H628v12.6Zm20.3-.16V481.2h12.73v12.4Zm24.32-29.34v12.52H472.17V464.26Zm-173.29-4.38V447.45h12.74v12.43Zm16.93.09V447.53h16.27V460Zm20.72-.18V447.36h15.93v12.43Zm20.17.17V447.52h20.92V460Zm25.17-.15V447.43h21.12v12.38Zm25.09.12V447.52h16.11v12.41Zm20.47-.13V447.44h16.22V459.8Zm20.44.19V447.45h12.58V460Zm24.35-29.34v12.57H472.22V430.65Zm-173.24-4.07V413.93h12.59v12.65Zm16.67,0V414.13h16.42v12.44Zm20.75,0V414.1h16v12.45Zm20.3-.08V413.94h21.07v12.53Zm25.25.06V414.09h20.93v12.44Zm25.12.07V414h16.07V426.6Zm20.55,0V414h16v12.57Zm20.15-.06V414.08H645v12.44Zm24.25-29.31v12.44H472V397.21ZM483.56,392.7V380.39h12.67V392.7Zm16.86,0V380.38h16.39v12.35Zm20.6.08V380.36h16.1v12.45Zm20.3,0V380.38h21V392.8Zm25.11-.11V380.28h21.14v12.41Zm25.28.06V380.33h16.2v12.42Zm20.59.12V380.39h16v12.48Zm20.16-.06V380.29H645.2v12.52Zm24.36-29.37V376H472.18V363.44Zm-173.34-3.82V346.84h13.14c0,3.54.13,7.13-.1,10.69a3,3,0,0,1-2.17,2C490.91,359.74,487.45,359.62,483.48,359.62Zm17-.26V346.79c1.3-.14,2.42-.37,3.55-.38,4.13,0,8.25,0,12.67,0v13Zm20.5.3v-13h15.7a3.72,3.72,0,0,1,.41.76c1.85,12,1.69,12.22-10.24,12.19C525.09,359.65,523.29,359.66,521,359.66Zm20.38,0V346.69h21.27c0,3.67.2,7-.13,10.2a3.76,3.76,0,0,1-2.56,2.6C553.89,359.73,547.79,359.61,541.39,359.61Zm25.14-.36V346.72h21v12.53ZM592,346.74h15.85v12.9h-6.33C590,359.62,589.6,359,592,346.74ZM612.15,359v-12.2H628c.25.49.37.63.38.78C629.73,360.12,627.41,361.79,612.15,359Zm20.23.27V346.78h12.71v12.53ZM656.84,330v12.53H472.19V330Zm-173.19-4.35v-12.6h12.67v12.6Zm16.81.07V313.35h16.29v12.41Zm20.65-.12V313.2h16.1v12.44Zm20.38.09V313.12h20.86v12.61Zm25,.08V313.24h21v12.57Zm25.08-.18V313.14h16.07v12.49Zm20.65,0V313.09h16v12.57Zm20.21.08V313.2h12.66v12.54Zm24.4-29.41v12.5H472.2v-12.5ZM483.62,292V279.43h12.64V292Zm16.84.06V279.63h16.28V292.1ZM521.1,292V279.48h16.13V292Zm20.31.12V279.52h20.81v12.63Zm25.08.2V279.46h21.32c0,3.47.2,6.89-.13,10.26a3.76,3.76,0,0,1-2.61,2.52C579,292.46,572.89,292.35,566.49,292.35Zm25.43-.36V279.48h15.74V292Zm20.28.15V279.49h16v12.65Zm20.37-.21V279.56H645.1v12.37Zm24.29-29.07v12.49H472V262.86Zm-173.08-4.17v-12.6h12.56v12.6Zm16.79-.11V246h16.09v12.62Zm20.63.07V246.13h16v12.52Zm20.26,0V246.14h20.91v12.51Zm25,0V246.2h21v12.43Zm25.25.12V246.14h16.07v12.61Zm20.55,0V246.11h16.1v12.61Zm20.15-.22V246.13h12.74V258.5Zm24.47-29.24v12.46H472.19V229.26ZM631.5,209.64c-1.23,1-3.34,1.29-5.06,1.37-4.15.19-8.31.06-13.16.06a28,28,0,0,1,2.06-3c10.17-10.79,20.28-21.64,30.64-32.24a10.33,10.33,0,0,1,6.37-2.7c7.11-.34,14.24-.13,22.85-.13C659.85,185.93,645.74,197.86,631.5,209.64Z" transform="translate(-341.5 -153.08)"/><line class="cls-1" x1="126.5" y1="78.58" x2="126.5" y2="74.73"/><line class="cls-1" x1="126.5" y1="90.75" x2="126.5" y2="82.42"/><line class="cls-1" x1="318.5" y1="91.83" x2="318.5" y2="71.95"/><path d="M416.5,401.5h-57a18,18,0,0,1-18-18,17.7,17.7,0,0,1,1.32-6.76A18,18,0,0,1,366.75,367a23,23,0,0,1,44.39,3.41,16,16,0,1,1,5.36,31.07Zm-57-32a13.93,13.93,0,0,0-13,8.75,13.74,13.74,0,0,0-1,5.25,14,14,0,0,0,14,14h57a12,12,0,0,0,12-12,12,12,0,0,0-18-10.37l-2.84,1.66-.17-3.28A19,19,0,0,0,370,370.37l-.61,2.78-2.41-1.52A13.92,13.92,0,0,0,359.5,369.5Z" transform="translate(-341.5 -153.08)"/><path d="M742.23,313.41H706.52a12,12,0,0,1-12-12,11.81,11.81,0,0,1,.88-4.52,12,12,0,0,1,15.25-6.78,15.16,15.16,0,0,1,28.8,2.16,10.77,10.77,0,1,1,2.79,21.17Zm-35.71-20a8,8,0,0,0-7.44,5,7.86,7.86,0,0,0-.59,3,8,8,0,0,0,8,8h35.71a6.78,6.78,0,0,0,6.77-6.77,6.76,6.76,0,0,0-10.17-5.85L736,298.44l-.17-3.28a11.16,11.16,0,0,0-22-1.84l-.61,2.78-2.41-1.52A8,8,0,0,0,706.52,293.36Z" transform="translate(-341.5 -153.08)"/></svg>