<svg id="Layer_1" data-name="Layer 1" xmlns="http://www.w3.org/2000/svg" viewBox="0 0 400.92 420.41"><title>nairobi</title><path d="M656.89,430.65H472.22v12.57H656.89Z" transform="translate(-347.14 -156.47)"/><path d="M472.05,275.35h184.8v-12.5H472.05Z" transform="translate(-347.14 -156.47)"/><path d="M409.35,374.65c-2.36-9.57-7.92-15.9-17.45-17.37-10.95-1.7-18.39,3.87-23.18,13.23-1.64-.35-2.92-.69-4.23-.9a15,15,0,0,0-17.2,12.9c-1.21,7.94,4.77,16.35,12.93,16.54,19.13.45,38.29.38,57.42.08,6.69-.11,11.47-6.1,11.46-12.8C429.09,376.62,421,371.65,409.35,374.65Z" transform="translate(-347.14 -156.47)"/><path d="M656.84,330H472.19v12.53H656.84Z" transform="translate(-347.14 -156.47)"/><path d="M656.82,363.44H472.18V376H656.82Z" transform="translate(-347.14 -156.47)"/><path d="M656.87,229.26H472.19v12.46H656.87Z" transform="translate(-347.14 -156.47)"/><path d="M656.86,296.33H472.2v12.5H656.86Z" transform="translate(-347.14 -156.47)"/><path d="M472,409.65H656.69V397.21H472Z" transform="translate(-347.14 -156.47)"/><path d="M656.82,531.35H472.17v12.53H656.82Z" transform="translate(-347.14 -156.47)"/><path d="M656.82,564.35H472.17v12.53H656.82Z" transform="translate(-347.14 -156.47)"/><path d="M472.05,510.42H656.69V497.93H472.05Z" transform="translate(-347.14 -156.47)"/><path d="M656.84,464.26H472.17v12.52H656.84Z" transform="translate(-347.14 -156.47)"/><path d="M500.42,224.79H628.35v-9.63H500.42Z" transform="translate(-347.14 -156.47)"/><path d="M566.38,173.28v37.79c2.93,0,5.64-.4,8.18.07,8.6,1.61,13.1-1.83,16-10.1,3.31-9.47,8.21-18.38,12.52-27.76Z" transform="translate(-347.14 -156.47)"/><path d="M525.55,173.3c5.67,12.34,11.1,24.22,16.63,36.06a3.14,3.14,0,0,0,2.2,1.61c5.93.13,11.86.07,17.83.07V173.3Z" transform="translate(-347.14 -156.47)"/><path d="M643.46,173c-12.18,0-22.95-.1-33.71.13-1.31,0-3.11,1.6-3.77,2.91-3.41,6.83-6.54,13.79-9.72,20.73-2.1,4.58-4.13,9.18-6.41,14.27,5.64,0,10.45.08,15.26-.06a5.49,5.49,0,0,0,3.52-1.27C620,197.88,631.26,185.93,643.46,173Z" transform="translate(-347.14 -156.47)"/><path d="M538,211.06c.12-.5.24-.7.19-.82-5.32-11.81-10.62-23.63-16-35.39a3.53,3.53,0,0,0-2.57-1.74c-10.93-.12-21.85-.08-33.18-.08a8.49,8.49,0,0,0,.83,1.78q16.23,17.33,32.53,34.59a5.44,5.44,0,0,0,3.4,1.59C528.07,211.16,533.06,211.06,538,211.06Z" transform="translate(-347.14 -156.47)"/><path d="M710.7,296.86a23.55,23.55,0,0,0-2.72-.77c-4.86-.71-8.56,1.85-9.06,6.23s2.3,8.17,7.21,8.27c11.29.23,22.6.27,33.89-.06,5.25-.15,8.52-4.59,8-9.51s-4.77-8-10-7.41c-1,.11-1.92.3-3,.47-2.89-5.64-7.09-9-13.59-8.14C715.33,286.74,712.35,290.88,710.7,296.86Z" transform="translate(-347.14 -156.47)"/><path d="M675.2,173c-8.61,0-15.74-.21-22.85.13a10.33,10.33,0,0,0-6.37,2.7c-10.36,10.61-20.47,21.45-30.64,32.24a26.91,26.91,0,0,0-2.06,3c4.84,0,9,.13,13.16-.06,1.72-.08,3.83-.35,5.06-1.37C645.74,197.86,659.85,185.93,675.2,173Z" transform="translate(-347.14 -156.47)"/><path d="M516.12,211.07c-12.21-13-23.54-25.05-34.9-37.09a2.7,2.7,0,0,0-1.69-.86c-8.17-.06-16.34,0-25.77,0C469.12,186,483.32,198,497.61,209.89a6.3,6.3,0,0,0,3.64,1.13C505.72,211.15,510.2,211.07,516.12,211.07Z" transform="translate(-347.14 -156.47)"/><path d="M587.55,156.49H541.41V169h46.14Z" transform="translate(-347.14 -156.47)"/><path d="M500.49,156.47V169H537V156.47Z" transform="translate(-347.14 -156.47)"/><path d="M625.79,169.13V156.51h-34v12.62Z" transform="translate(-347.14 -156.47)"/><path d="M587.57,346.72h-21v12.52h21Z" transform="translate(-347.14 -156.47)"/><path d="M562.66,346.69H541.39v12.92c6.4,0,12.5.11,18.58-.12a3.78,3.78,0,0,0,2.56-2.6C562.86,353.65,562.66,350.36,562.66,346.69Z" transform="translate(-347.14 -156.47)"/><path d="M541.41,481.13v12.43h21V481.13Z" transform="translate(-347.14 -156.47)"/><path d="M587.67,481.17H566.56v12.35h21.12Z" transform="translate(-347.14 -156.47)"/><path d="M541.28,560.8h21.1V548.27h-21.1Z" transform="translate(-347.14 -156.47)"/><path d="M562.37,246.14h-20.9v12.51h20.9Z" transform="translate(-347.14 -156.47)"/><path d="M587.47,258.63V246.2h-21v12.43Z" transform="translate(-347.14 -156.47)"/><path d="M587.69,548.29H566.55v12.32h21.14Z" transform="translate(-347.14 -156.47)"/><path d="M587.55,414.09H566.62v12.44h20.93Z" transform="translate(-347.14 -156.47)"/><path d="M541.32,392.8h21V380.38h-21Z" transform="translate(-347.14 -156.47)"/><path d="M566.49,279.46v12.89c6.4,0,12.49.11,18.58-.12a3.75,3.75,0,0,0,2.62-2.52c.32-3.37.13-6.78.13-10.26Z" transform="translate(-347.14 -156.47)"/><path d="M541.49,313.12v12.61h20.86V313.12Z" transform="translate(-347.14 -156.47)"/><path d="M587.55,325.81V313.24h-21v12.58Z" transform="translate(-347.14 -156.47)"/><path d="M566.43,392.69h21.14V380.28H566.43Z" transform="translate(-347.14 -156.47)"/><path d="M562.29,460V447.52H541.37V460Z" transform="translate(-347.14 -156.47)"/><path d="M587.66,447.43H566.54v12.38h21.12Z" transform="translate(-347.14 -156.47)"/><path d="M562.22,292.15V279.52H541.41v12.63Z" transform="translate(-347.14 -156.47)"/><path d="M562.42,514.68H541.35V527.1h21.07Z" transform="translate(-347.14 -156.47)"/><path d="M562.44,413.94H541.37v12.53h21.06Z" transform="translate(-347.14 -156.47)"/><path d="M587.58,514.25h-10.5c-11.7,0-11.7,0-10.75,11.85,0,.29.33.56.58,1h20.67Z" transform="translate(-347.14 -156.47)"/><path d="M607.87,359.64V346.74H592c-2.41,12.31-2,12.88,9.52,12.89Z" transform="translate(-347.14 -156.47)"/><path d="M628,346.84H612.15V359c15.26,2.75,17.58,1.08,16.24-11.43A3.91,3.91,0,0,0,628,346.84Z" transform="translate(-347.14 -156.47)"/><path d="M500.51,346.79v12.57h16.22v-13c-4.42,0-8.54,0-12.67,0C502.93,346.42,501.81,346.65,500.51,346.79Z" transform="translate(-347.14 -156.47)"/><path d="M521,359.66h5.87c11.93,0,12.09-.16,10.24-12.18a3.93,3.93,0,0,0-.41-.76H521Z" transform="translate(-347.14 -156.47)"/><path d="M516.81,380.38H500.42v12.35h16.39Z" transform="translate(-347.14 -156.47)"/><path d="M628.32,392.87V380.39h-16v12.48Z" transform="translate(-347.14 -156.47)"/><path d="M500.57,246v12.62h16.09V246Z" transform="translate(-347.14 -156.47)"/><path d="M607.77,258.75V246.14H591.7v12.61Z" transform="translate(-347.14 -156.47)"/><path d="M516.75,325.76V313.35H500.46v12.41Z" transform="translate(-347.14 -156.47)"/><path d="M500.32,426.57h16.42V414.13H500.32Z" transform="translate(-347.14 -156.47)"/><path d="M591.6,313.14v12.49h16.07V313.14Z" transform="translate(-347.14 -156.47)"/><path d="M500.51,481.15v12.52H516.7V481.15Z" transform="translate(-347.14 -156.47)"/><path d="M516.75,460V447.53H500.48V460Z" transform="translate(-347.14 -156.47)"/><path d="M612.25,313.09v12.57h16V313.09Z" transform="translate(-347.14 -156.47)"/><path d="M607.91,380.33H591.71v12.42h16.21Z" transform="translate(-347.14 -156.47)"/><path d="M591.57,493.6h16.17V481.2H591.57Z" transform="translate(-347.14 -156.47)"/><path d="M628,493.76V481.16H612.22v12.59Z" transform="translate(-347.14 -156.47)"/><path d="M516.74,279.63H500.46V292.1h16.28Z" transform="translate(-347.14 -156.47)"/><path d="M500.52,514.47v12.67h16.17V514.47Z" transform="translate(-347.14 -156.47)"/><path d="M516.73,560.83V548.22H500.5v12.61Z" transform="translate(-347.14 -156.47)"/><path d="M607.87,548.24H591.66v12.51h16.22Z" transform="translate(-347.14 -156.47)"/><path d="M628.35,560.79V548.21H612.16v12.58Z" transform="translate(-347.14 -156.47)"/><path d="M628.35,258.72V246.11h-16.1v12.61Z" transform="translate(-347.14 -156.47)"/><path d="M591.63,459.93h16.11V447.52H591.63Z" transform="translate(-347.14 -156.47)"/><path d="M612.1,459.8h16.22V447.44H612.1Z" transform="translate(-347.14 -156.47)"/><path d="M628.31,414h-16v12.58h16Z" transform="translate(-347.14 -156.47)"/><path d="M607.81,426.6V414H591.74v12.6Z" transform="translate(-347.14 -156.47)"/><path d="M628.17,292.14V279.49h-16v12.65Z" transform="translate(-347.14 -156.47)"/><path d="M612.13,527h16.2V514.56h-16.2Z" transform="translate(-347.14 -156.47)"/><path d="M591.92,279.48V292h15.74v-12.5Z" transform="translate(-347.14 -156.47)"/><path d="M591.37,514.56c0,3.72-.13,7.18.1,10.61a3,3,0,0,0,2.07,2.1c4.73.19,9.47.1,14.32.1V514.56Z" transform="translate(-347.14 -156.47)"/><path d="M521.11,313.2v12.44h16.1V313.2Z" transform="translate(-347.14 -156.47)"/><path d="M521,392.81h16.1V380.36H521Z" transform="translate(-347.14 -156.47)"/><path d="M537.28,548.35h-16.2v12.36h16.2Z" transform="translate(-347.14 -156.47)"/><path d="M537.06,426.55V414.1h-16v12.45Z" transform="translate(-347.14 -156.47)"/><path d="M630.09,169.08h15.53V156.53H630.09Z" transform="translate(-347.14 -156.47)"/><path d="M521,527h16.44a97.93,97.93,0,0,0-.12-9.9c-.11-1-1.56-2.63-2.48-2.68-4.56-.28-9.15-.13-13.84-.13Z" transform="translate(-347.14 -156.47)"/><path d="M537.17,246.13h-16v12.51h16Z" transform="translate(-347.14 -156.47)"/><path d="M521.14,481.13v12.43h16V481.13Z" transform="translate(-347.14 -156.47)"/><path d="M521.2,447.36v12.43h15.94V447.36Z" transform="translate(-347.14 -156.47)"/><path d="M537.23,279.48H521.1V292h16.12Z" transform="translate(-347.14 -156.47)"/><path d="M483.48,359.62c4,0,7.43.13,10.87-.09a3,3,0,0,0,2.17-2c.23-3.56.1-7.15.1-10.68H483.48Z" transform="translate(-347.14 -156.47)"/><path d="M483.55,459.88h12.74V447.45H483.55Z" transform="translate(-347.14 -156.47)"/><path d="M483.65,313.09v12.6h12.67v-12.6Z" transform="translate(-347.14 -156.47)"/><path d="M483.65,548.13v12.61h12.69V548.13Z" transform="translate(-347.14 -156.47)"/><path d="M483.56,392.7h12.67V380.39H483.56Z" transform="translate(-347.14 -156.47)"/><path d="M483.55,493.59h12.71V481.21H483.55Z" transform="translate(-347.14 -156.47)"/><path d="M483.78,246.09v12.6h12.56v-12.6Z" transform="translate(-347.14 -156.47)"/><path d="M483.24,169h13.05V156.58H483.24Z" transform="translate(-347.14 -156.47)"/><path d="M496.46,514.62H483.74V527h12.72Z" transform="translate(-347.14 -156.47)"/><path d="M496.24,426.58V413.93H483.65v12.65Z" transform="translate(-347.14 -156.47)"/><path d="M483.62,279.43V292h12.65V279.43Z" transform="translate(-347.14 -156.47)"/><path d="M645.09,359.31V346.78H632.38v12.53Z" transform="translate(-347.14 -156.47)"/><path d="M632.46,313.2v12.54h12.66V313.2Z" transform="translate(-347.14 -156.47)"/><path d="M645.2,380.29H632.46v12.52H645.2Z" transform="translate(-347.14 -156.47)"/><path d="M645.1,279.56H632.57v12.38H645.1Z" transform="translate(-347.14 -156.47)"/><path d="M645.11,526.79V514.58H632.68c-1.94,12.61-.82,13.85,11.18,12.72A6.13,6.13,0,0,0,645.11,526.79Z" transform="translate(-347.14 -156.47)"/><path d="M645.12,460V447.45H632.54V460Z" transform="translate(-347.14 -156.47)"/><path d="M632.4,258.5h12.74V246.13H632.4Z" transform="translate(-347.14 -156.47)"/><path d="M632.56,548.24v12.42h12.66V548.24Z" transform="translate(-347.14 -156.47)"/><path d="M645,426.52V414.08H632.44v12.43Z" transform="translate(-347.14 -156.47)"/><path d="M645.25,481.2H632.52v12.4h12.73Z" transform="translate(-347.14 -156.47)"/></svg>